<svg width="294" height="124" viewBox="0 0 294 124" fill="none" xmlns="http://www.w3.org/2000/svg">
<mask id="path-1-inside-1_203_57" fill="white">
<path d="M294 119.5C294 103.807 290.198 88.2677 282.81 73.7693C275.423 59.2709 264.595 46.0973 250.945 35.0007L246.61 38.5245C259.691 49.1583 270.067 61.7826 277.147 75.6764C284.226 89.5702 287.87 104.461 287.87 119.5H294Z"/>
</mask>
<path d="M294 119.5C294 103.807 290.198 88.2677 282.81 73.7693C275.423 59.2709 264.595 46.0973 250.945 35.0007L246.61 38.5245C259.691 49.1583 270.067 61.7826 277.147 75.6764C284.226 89.5702 287.87 104.461 287.87 119.5H294Z" stroke="#A1C84E" stroke-width="24" mask="url(#path-1-inside-1_203_57)"/>
<mask id="path-2-inside-2_203_57" fill="white">
<path d="M294 119.5C294 103.807 290.198 88.2677 282.81 73.7693C275.423 59.2709 264.595 46.0973 250.945 35.0007L246.61 38.5245C259.691 49.1583 270.067 61.7826 277.147 75.6764C284.226 89.5702 287.87 104.461 287.87 119.5H294Z"/>
</mask>
<path d="M294 119.5C294 103.807 290.198 88.2677 282.81 73.7693C275.423 59.2709 264.595 46.0973 250.945 35.0007L246.61 38.5245C259.691 49.1583 270.067 61.7826 277.147 75.6764C284.226 89.5702 287.87 104.461 287.87 119.5H294Z" stroke="#A1C84E" stroke-width="24" mask="url(#path-2-inside-2_203_57)"/>
<mask id="path-3-inside-3_203_57" fill="white">
<path d="M250.945 35.0007C223.377 12.5901 185.987 3.7794e-07 147 0L147 4.98333C184.361 4.98333 220.192 17.0484 246.61 38.5245L250.945 35.0007Z"/>
</mask>
<path d="M250.945 35.0007C223.377 12.5901 185.987 3.7794e-07 147 0L147 4.98333C184.361 4.98333 220.192 17.0484 246.61 38.5245L250.945 35.0007Z" stroke="#F5EA30" stroke-width="24" mask="url(#path-3-inside-3_203_57)"/>
<mask id="path-4-inside-4_203_57" fill="white">
<path d="M147 0C108.013 -3.7794e-07 70.6232 12.5901 43.0553 35.0007L47.39 38.5245C73.8082 17.0484 109.639 4.98333 147 4.98333L147 0Z"/>
</mask>
<path d="M147 0C108.013 -3.7794e-07 70.6232 12.5901 43.0553 35.0007L47.39 38.5245C73.8082 17.0484 109.639 4.98333 147 4.98333L147 0Z" stroke="#F4A449" stroke-width="24" mask="url(#path-4-inside-4_203_57)"/>
<mask id="path-5-inside-5_203_57" fill="white">
<path d="M43.0553 35.0007C15.4875 57.4113 3.40834e-06 87.8066 0 119.5L6.13013 119.5C6.13013 89.1283 20.9717 60.0005 47.39 38.5245L43.0553 35.0007Z"/>
</mask>
<path d="M43.0553 35.0007C15.4875 57.4113 3.40834e-06 87.8066 0 119.5L6.13013 119.5C6.13013 89.1283 20.9717 60.0005 47.39 38.5245L43.0553 35.0007Z" stroke="#EB4F50" stroke-width="24" mask="url(#path-5-inside-5_203_57)"/>
<mask id="path-6-inside-6_203_57" fill="white">
<path d="M147 0C108.013 -3.7794e-07 70.6232 12.5901 43.0553 35.0007L47.39 38.5245C73.8082 17.0484 109.639 4.98333 147 4.98333L147 0Z"/>
</mask>
<path d="M147 0C108.013 -3.7794e-07 70.6232 12.5901 43.0553 35.0007L47.39 38.5245C73.8082 17.0484 109.639 4.98333 147 4.98333L147 0Z" stroke="#F4A449" stroke-width="24" mask="url(#path-6-inside-6_203_57)"/>
<mask id="path-7-inside-7_203_57" fill="white">
<path d="M250.945 35.0007C223.377 12.5901 185.987 3.7794e-07 147 0L147 4.98333C184.361 4.98333 220.192 17.0484 246.61 38.5245L250.945 35.0007Z"/>
</mask>
<path d="M250.945 35.0007C223.377 12.5901 185.987 3.7794e-07 147 0L147 4.98333C184.361 4.98333 220.192 17.0484 246.61 38.5245L250.945 35.0007Z" stroke="#F5EA30" stroke-width="24" mask="url(#path-7-inside-7_203_57)"/>
<mask id="path-8-inside-8_203_57" fill="white">
<path d="M250.945 35.0007C223.377 12.5901 185.987 3.7794e-07 147 0L147 4.98333C184.361 4.98333 220.192 17.0484 246.61 38.5245L250.945 35.0007Z"/>
</mask>
<path d="M250.945 35.0007C223.377 12.5901 185.987 3.7794e-07 147 0L147 4.98333C184.361 4.98333 220.192 17.0484 246.61 38.5245L250.945 35.0007Z" stroke="#F5EA30" stroke-width="24" mask="url(#path-8-inside-8_203_57)"/>
<mask id="path-9-inside-9_203_57" fill="white">
<path d="M293.295 107.807C289.48 76.2655 270.408 47.248 240.275 27.1379L236.385 30.9895C265.262 50.261 283.538 78.0684 287.194 108.294L293.295 107.807Z"/>
</mask>
<path d="M293.295 107.807C289.48 76.2655 270.408 47.248 240.275 27.1379L236.385 30.9895C265.262 50.261 283.538 78.0684 287.194 108.294L293.295 107.807Z" stroke="#A1C84E" stroke-width="24" mask="url(#path-9-inside-9_203_57)"/>
</svg>
