<svg width="294" height="163" viewBox="0 0 294 163" fill="none" xmlns="http://www.w3.org/2000/svg">
<path d="M52.02 89.52V76.98C52.02 70.66 55.18 67.5 61.5 67.5H69.3C75.58 67.5 78.72 70.66 78.72 76.98V85.86H59.04V90.12C59.04 91.96 59.96 92.88 61.8 92.88H77.52V96.66L74.34 99H61.5C55.18 99 52.02 95.84 52.02 89.52ZM59.04 80.4H71.7V76.38C71.7 74.54 70.78 73.62 68.94 73.62H61.8C59.96 73.62 59.04 74.54 59.04 76.38V80.4Z" fill="#EF0000"/>
<path d="M86.6 96.9V94.44H105.08C107.8 94.44 109.16 93.08 109.16 90.36V85.5C109.16 83.22 108.14 81.88 106.1 81.48L93.2 78.84C88.8 77.96 86.6 75.02 86.6 70.02V66.78C86.6 60.66 89.66 57.6 95.78 57.6H110.3L113 59.7V62.16H95.72C93 62.16 91.64 63.52 91.64 66.24V70.32C91.64 72.6 92.66 73.94 94.7 74.34L107.6 76.92C112 77.8 114.2 80.76 114.2 85.8V89.82C114.2 95.94 111.14 99 105.02 99H89.3L86.6 96.9ZM123.325 90V76.8C123.325 70.8 126.325 67.8 132.325 67.8H144.085L146.485 69.6V72H132.325C129.525 72 128.125 73.4 128.125 76.2V90.6C128.125 93.4 129.525 94.8 132.325 94.8H146.485V97.2L144.085 99H132.325C126.325 99 123.325 96 123.325 90ZM154.759 90V76.8C154.759 70.8 157.759 67.8 163.759 67.8H172.159C178.159 67.8 181.159 70.8 181.159 76.8V90C181.159 96 178.159 99 172.159 99H163.759C157.759 99 154.759 96 154.759 90ZM159.559 90.6C159.559 93.4 160.959 94.8 163.759 94.8H172.159C174.959 94.8 176.359 93.4 176.359 90.6V76.2C176.359 73.4 174.959 72 172.159 72H163.759C160.959 72 159.559 73.4 159.559 76.2V90.6ZM191.238 99V71.4C192.638 69 195.238 67.8 199.038 67.8H205.038L207.438 69.6V72H199.698C198.018 72 196.798 72.46 196.038 73.38V99H191.238ZM214.522 90V76.8C214.522 70.8 217.522 67.8 223.522 67.8H231.322C237.322 67.8 240.322 70.8 240.322 76.8V85.26H219.322V90.6C219.322 93.4 220.722 94.8 223.522 94.8H239.122V97.2L236.722 99H223.522C217.522 99 214.522 96 214.522 90ZM219.322 81.36H235.522V76.2C235.522 73.4 234.122 72 231.322 72H223.522C220.722 72 219.322 73.4 219.322 76.2V81.36Z" fill="#676767"/>
<mask id="path-3-inside-1_201_35" fill="white">
<path d="M294 119.5C294 103.807 290.198 88.2677 282.81 73.7693C275.423 59.2709 264.595 46.0973 250.945 35.0007L246.61 38.5245C259.691 49.1583 270.067 61.7826 277.147 75.6764C284.226 89.5702 287.87 104.461 287.87 119.5H294Z"/>
</mask>
<path d="M294 119.5C294 103.807 290.198 88.2677 282.81 73.7693C275.423 59.2709 264.595 46.0973 250.945 35.0007L246.61 38.5245C259.691 49.1583 270.067 61.7826 277.147 75.6764C284.226 89.5702 287.87 104.461 287.87 119.5H294Z" stroke="#A1C84E" stroke-width="24" mask="url(#path-3-inside-1_201_35)"/>
<mask id="path-4-inside-2_201_35" fill="white">
<path d="M294 119.5C294 103.807 290.198 88.2677 282.81 73.7693C275.423 59.2709 264.595 46.0973 250.945 35.0007L246.61 38.5245C259.691 49.1583 270.067 61.7826 277.147 75.6764C284.226 89.5702 287.87 104.461 287.87 119.5H294Z"/>
</mask>
<path d="M294 119.5C294 103.807 290.198 88.2677 282.81 73.7693C275.423 59.2709 264.595 46.0973 250.945 35.0007L246.61 38.5245C259.691 49.1583 270.067 61.7826 277.147 75.6764C284.226 89.5702 287.87 104.461 287.87 119.5H294Z" stroke="#A1C84E" stroke-width="24" mask="url(#path-4-inside-2_201_35)"/>
<mask id="path-5-inside-3_201_35" fill="white">
<path d="M250.945 35.0007C223.377 12.5901 185.987 3.7794e-07 147 0L147 4.98333C184.361 4.98333 220.192 17.0484 246.61 38.5245L250.945 35.0007Z"/>
</mask>
<path d="M250.945 35.0007C223.377 12.5901 185.987 3.7794e-07 147 0L147 4.98333C184.361 4.98333 220.192 17.0484 246.61 38.5245L250.945 35.0007Z" stroke="#F5EA30" stroke-width="24" mask="url(#path-5-inside-3_201_35)"/>
<mask id="path-6-inside-4_201_35" fill="white">
<path d="M147 0C108.013 -3.7794e-07 70.6232 12.5901 43.0553 35.0007L47.39 38.5245C73.8082 17.0484 109.639 4.98333 147 4.98333L147 0Z"/>
</mask>
<path d="M147 0C108.013 -3.7794e-07 70.6232 12.5901 43.0553 35.0007L47.39 38.5245C73.8082 17.0484 109.639 4.98333 147 4.98333L147 0Z" stroke="#F4A449" stroke-width="24" mask="url(#path-6-inside-4_201_35)"/>
<mask id="path-7-inside-5_201_35" fill="white">
<path d="M43.0553 35.0007C15.4875 57.4113 3.40834e-06 87.8066 0 119.5L6.13013 119.5C6.13013 89.1283 20.9717 60.0005 47.39 38.5245L43.0553 35.0007Z"/>
</mask>
<path d="M43.0553 35.0007C15.4875 57.4113 3.40834e-06 87.8066 0 119.5L6.13013 119.5C6.13013 89.1283 20.9717 60.0005 47.39 38.5245L43.0553 35.0007Z" stroke="#EB4F50" stroke-width="24" mask="url(#path-7-inside-5_201_35)"/>
<mask id="path-8-inside-6_201_35" fill="white">
<path d="M147 0C108.013 -3.7794e-07 70.6232 12.5901 43.0553 35.0007L47.39 38.5245C73.8082 17.0484 109.639 4.98333 147 4.98333L147 0Z"/>
</mask>
<path d="M147 0C108.013 -3.7794e-07 70.6232 12.5901 43.0553 35.0007L47.39 38.5245C73.8082 17.0484 109.639 4.98333 147 4.98333L147 0Z" stroke="#F4A449" stroke-width="24" mask="url(#path-8-inside-6_201_35)"/>
<mask id="path-9-inside-7_201_35" fill="white">
<path d="M250.945 35.0007C223.377 12.5901 185.987 3.7794e-07 147 0L147 4.98333C184.361 4.98333 220.192 17.0484 246.61 38.5245L250.945 35.0007Z"/>
</mask>
<path d="M250.945 35.0007C223.377 12.5901 185.987 3.7794e-07 147 0L147 4.98333C184.361 4.98333 220.192 17.0484 246.61 38.5245L250.945 35.0007Z" stroke="#F5EA30" stroke-width="24" mask="url(#path-9-inside-7_201_35)"/>
<mask id="path-10-inside-8_201_35" fill="white">
<path d="M250.945 35.0007C223.377 12.5901 185.987 3.7794e-07 147 0L147 4.98333C184.361 4.98333 220.192 17.0484 246.61 38.5245L250.945 35.0007Z"/>
</mask>
<path d="M250.945 35.0007C223.377 12.5901 185.987 3.7794e-07 147 0L147 4.98333C184.361 4.98333 220.192 17.0484 246.61 38.5245L250.945 35.0007Z" stroke="#F5EA30" stroke-width="24" mask="url(#path-10-inside-8_201_35)"/>
<mask id="path-11-inside-9_201_35" fill="white">
<path d="M293.295 107.807C289.48 76.2655 270.408 47.248 240.275 27.1379L236.385 30.9895C265.262 50.261 283.538 78.0684 287.194 108.294L293.295 107.807Z"/>
</mask>
<path d="M293.295 107.807C289.48 76.2655 270.408 47.248 240.275 27.1379L236.385 30.9895C265.262 50.261 283.538 78.0684 287.194 108.294L293.295 107.807Z" stroke="#A1C84E" stroke-width="24" mask="url(#path-11-inside-9_201_35)"/>
</svg>
